<svg viewBox="0 0 32 32" xml:space="preserve" xmlns="http://www.w3.org/2000/svg"><path d="M32.015 13.524c-.598.81-1.528 1.085-2.506.989-1.287-.126-1.057-1.049-1.726-2.017-.479-.693-1.342-1.098-1.88-1.808-.459-.606-2.045-2.724-2.805-2.846-1.144-.185-1.919.53-2.665-.472-.564-.757-1.189-.465-1.847-.802-.531-.272-1.877-1.798-2.588-1.318-.605.409.029 2.089.154 2.596-2.059-.129-3.915 1.263-6.026.997C3.931 8.061.892 11.971.553 14.238c-.188 1.256-1.358 7.345.491 7.883-.878-.531-.524-5.481.326-5.865.306 2.075 1.089 4.022 1.463 6.065.298 1.632-.039 3.539-.071 5.196h3.122c.114-.742-1.485-.86-1.285-1.984.255-1.433.447-2.469 1.593-3.443.306 1.907 1.057 3.353.759 5.427h2.95c-1.04-.929-1.106-2.176-1.153-3.473-.043-1.188-.107-2.375-.272-3.553.957-.249 1.899-.558 2.837-.868 1.146-.379 1.758-.941 1.963.558.164 1.202.096 2.222-.067 3.414-.183 1.339-.48 2.596-.702 3.922 1.041-.006 2.083.022 3.125 0 .124-.194-.687-.53-.658-.842.068-.73 1.033-5.779 1.558-7.703 1.667 2.269 1.748 2.085 2.014 3.81.26 1.684.178 2.981.22 4.583 1.016 0 3.395.225 2.881-.308-.504-.522-2.757-11.816-2.098-11.938.835-.154 2.081 2.025 2.922 1.379.63-.483-.456-1.922-.076-2.216-.136.105 3.571.248 3.702.269 1.169.185.949 1.92.867 2.808-.086.934-.455 1.857-1.388 2.225-.679.268-1.454.221-2.158.1-1.17-.201-1.259-1.177-1.869.303-.063.152 2.028.615 2.152.631 1.254.164 2.682.022 3.588-.961.907-.984 1.43-3.036 1.58-4.353 1.237.209 2.921-.435 3.146-1.78z" fill="#3ec934" class="fill-404041"></path></svg>